<svg width="256.944" height="291.576" xmlns="http://www.w3.org/2000/svg"><path d="m21.486.13 2.49-.008c2.759-.006 5.517-.005 8.275-.004l5.928-.01C43.551.097 48.923.095 54.295.095 58.781.095 63.266.09 67.751.087 78.337.08 88.922.077 99.508.077c10.914.001 21.828-.01 32.742-.025 9.373-.013 18.745-.019 28.118-.018 5.596 0 11.193-.003 16.79-.013 5.267-.01 10.534-.01 15.8-.003 1.93.001 3.86-.001 5.79-.007 2.641-.008 5.283-.003 7.924.005L208.966 0c14.326.092 28.066 6.452 38.43 16.263 9.496 9.862 9.606 23.565 9.532 36.41l.011 4.981a1472 1472 0 0 1-.021 10.38c-.023 4.407-.01 8.813.014 13.22.015 3.422.01 6.844 0 10.267-.003 1.623 0 3.247.01 4.87.052 11.468-.65 22.104-8.42 31.247l-1.93 2.336c-4.659 4.857-9.274 8.168-15.383 10.976l-1.807.893c-10.161 4.745-21.074 4.733-32.087 4.72l-4.282.014c-2.97.007-5.938.007-8.908.002-3.794-.006-7.587.01-11.38.034-2.94.015-5.877.016-8.816.012-1.399 0-2.798.006-4.197.016a511.45 511.45 0 0 1-5.862-.006l-3.358.002c-5.17-.62-8.271-2.308-11.49-6.374-2.413-4.816-2.49-9.755-1.625-15 1.192-3.136 2.53-5.708 5-8 4.11-1.627 7.579-2.253 11.986-2.271l3.51-.031 3.75-.006 5.888-.057c4.82-.046 9.64-.07 14.46-.09 2.71-.014 5.42-.034 8.131-.063 2.547-.026 5.093-.04 7.64-.04 7.505-.087 12.957-.46 18.947-5.317 3.235-4.074 3.94-7.858 3.994-12.981l.048-3.5.017-3.757.027-3.89c.016-2.714.024-5.428.027-8.142.005-3.46.043-6.919.089-10.379.037-3.321.038-6.642.044-9.964l.06-3.738c-.038-7.15-.688-12.348-5.618-17.774-4.657-3.436-8.529-4.125-14.23-4.14l-3.955-.017-4.35-.004-4.573-.015c-4.144-.013-8.29-.02-12.434-.024l-7.772-.011a20085.2 20085.2 0 0 0-24.325-.028c-9.354-.004-18.708-.022-28.062-.05-7.233-.022-14.466-.032-21.7-.034-4.318 0-8.636-.006-12.955-.024-4.065-.017-8.13-.019-12.196-.01-1.488 0-2.976-.004-4.465-.014-7.693-.048-16.544.349-22.376 2.737l-.818.695c-1.508 1.288-3.04 1.797-3.907 4.54-.968 3.73-1.157 7.168-1.127 10.99l-.007 2.255c-.005 2.482.003 4.965.012 7.447a5305.8 5305.8 0 0 1-.006 5.353c-.005 3.837-.004 7.674.002 11.511.007 6.068-.003 12.136-.017 18.203-.038 17.253-.056 34.506-.045 51.759a7318.2 7318.2 0 0 1-.036 28.597c-.019 6.031-.016 12.062.004 18.094.007 3.752-.007 7.504-.027 11.256-.005 1.74-.002 3.479.011 5.218.016 2.376.002 4.75-.02 7.126l.036 2.08c-.105 5.507-1.95 7.743-5.662 11.51-3.636 2.741-7.932 2.368-12.313 2.375l-2.225.075c-5.598.03-8.941-1.092-13.462-4.45-2.429-4.346-2.284-8.761-2.261-13.609l-.012-2.623c-.01-2.9-.006-5.8-.002-8.701a6008.987 6008.987 0 0 1-.027-23.185c.001-4.714-.004-9.429-.009-14.143-.01-11.12-.011-22.242-.005-33.362.006-11.477-.006-22.953-.028-34.429-.017-9.85-.023-19.7-.02-29.552.002-5.884 0-11.768-.015-17.653-.012-5.533-.01-11.065.003-16.598.002-2.031 0-4.062-.009-6.093C.002 25.543.01 22.772.022 20L0 17.563c.046-4.822.729-8.124 3.397-12.3C9.433.51 14.007.114 21.486.13Z" fill="#9154FD"/><path d="m92.048 58.875 3.141-.016c3.407-.013 6.813-.005 10.22.005 2.375-.002 4.75-.004 7.126-.008 4.969-.005 9.937.002 14.906.016 6.369.017 12.737.007 19.106-.011 4.901-.01 9.802-.007 14.703 0 2.349.002 4.698 0 7.046-.007 3.28-.008 6.558.004 9.838.02l2.939-.018c4.916.047 8.36.158 12.324 3.407 3.979 4.966 3.626 10.35 3.43 16.441-.587 4.856-1.684 6.526-5.43 9.559-2.853 1.426-5.29 1.14-8.479 1.158l-2.016.015c-1.448.01-2.896.02-4.344.026-2.301.012-4.602.031-6.903.053-6.544.062-13.087.116-19.631.15-4.003.02-8.006.056-12.009.1-1.518.014-3.035.023-4.553.026-8.75.02-16.735.565-25.066 3.472-.864.594-1.405 1.218-2 2-1.54 4.121-2.257 7.561-2.29 11.954l-.039 3.49-.007 3.732-.02 3.878c-.012 2.704-.016 5.408-.014 8.112 0 3.443-.028 6.885-.062 10.328-.028 3.31-.026 6.62-.029 9.932l-.043 3.713c.037 6.974.43 12.995 4.504 18.86 4.37 3.979 7.748 4.503 13.559 4.54l2.143.036c2.246.035 4.49.044 6.736.05a913.6 913.6 0 0 1 6.724.071c2.037.029 4.073.04 6.11.048 5.225.358 9.376.867 13.103 4.693 2.483 3.916 2.784 6.886 2.813 11.438l.043 3.117c-.294 3.838-1.222 6.724-3.606 9.758-3.82 2.939-8.594 2.398-13.207 2.426-1.504.023-3.009.047-4.513.072-2.357.035-4.713.064-7.07.078-2.285.015-4.57.056-6.854.1l-2.106-.006c-5.435.134-9.68.985-14.152 3.795l-.723.785c-3.162 7.78-3.44 14.704-3.441 23.047-.012 1.342-.025 2.685-.04 4.028-.036 3.51-.056 7.019-.072 10.529-.025 5.63-.064 11.259-.122 16.889a890.67 890.67 0 0 0-.023 5.87l-.03 3.612-.014 3.168c-.394 4.368-1.376 7.023-4.57 10.044-6.033 4.068-11.558 4.612-18.688 3.813-6.028-1.763-8.921-4.478-12-10-.56-2.885-.545-5.702-.514-8.634l-.022-2.595c-.018-2.862-.008-5.724.003-8.587a2975.21 2975.21 0 0 1-.037-22.901c.005-4.66-.002-9.32-.01-13.979-.017-10.995-.013-21.99.004-32.984.017-11.336 0-22.672-.031-34.007-.027-9.738-.034-19.476-.026-29.214.005-5.813.003-11.626-.018-17.44-.018-5.47-.012-10.938.013-16.407.005-2.004.001-4.008-.012-6.011-.11-18.894-.11-18.894 4.07-24.75 5.604-5.288 12.954-4.925 20.231-4.88z" fill="#9154FD"/></svg>